GIL08_fast1_ik
nRows=3
nColumns=375

# SIMM Motion File Header:
name GIL08_fast1_ik
datacolumns 375
datarows 3
otherdata 1
range 0.76667000 0.78333000
endheader
time	pelvis_tx	pelvis_ty	pelvis_tz	pelvis_tilt	pelvis_list	pelvis_rotation	hip_flexion_r	hip_adduction_r	hip_rotation_r	knee_angle_r	ankle_angle_r	hip_flexion_l	hip_adduction_l	hip_rotation_l	knee_angle_l	ankle_angle_l	lumbar_extension	lumbar_bending	lumbar_rotation	subtalar_angle_r	mtp_angle_r	subtalar_angle_l	mtp_angle_l	asis_r_px	asis_r_py	asis_r_pz	asis_l_px	asis_l_py	asis_l_pz	midasis_px	midasis_py	midasis_pz	psis_r_px	psis_r_py	psis_r_pz	psis_l_px	psis_l_py	psis_l_pz	hip_r_px	hip_r_py	hip_r_pz	hip_l_px	hip_l_py	hip_l_pz	midhip_px	midhip_py	midhip_pz	epicondLat_r_px	epicondLat_r_py	epicondLat_r_pz	epicondMed_r_px	epicondMed_r_py	epicondMed_r_pz	thighwand_r_px	thighwand_r_py	thighwand_r_pz	upperleg1_r_px	upperleg1_r_py	upperleg1_r_pz	upperleg2_r_px	upperleg2_r_py	upperleg2_r_pz	malleolusLat_r_px	malleolusLat_r_py	malleolusLat_r_pz	malleolusMedv_r_px	malleolusMedv_r_py	malleolusMedv_r_pz	shankwand_r_px	shankwand_r_py	shankwand_r_pz	lowerleg1_r_px	lowerleg1_r_py	lowerleg1_r_pz	knee_r_px	knee_r_py	knee_r_pz	ankle_r_px	ankle_r_py	ankle_r_pz	toe_r_px	toe_r_py	toe_r_pz	epicondLat_l_px	epicondLat_l_py	epicondLat_l_pz	epicondMed_l_px	epicondMed_l_py	epicondMed_l_pz	thighwand_l_px	thighwand_l_py	thighwand_l_pz	upperleg1_l_px	upperleg1_l_py	upperleg1_l_pz	upperleg2_l_px	upperleg2_l_py	upperleg2_l_pz	malleolusLat_l_px	malleolusLat_l_py	malleolusLat_l_pz	malleolusMedv_l_px	malleolusMedv_l_py	malleolusMedv_l_pz	shankwand_l_px	shankwand_l_py	shankwand_l_pz	lowerleg1_l_px	lowerleg1_l_py	lowerleg1_l_pz	knee_l_px	knee_l_py	knee_l_pz	ankle_l_px	ankle_l_py	ankle_l_pz	toe_l_px	toe_l_py	toe_l_pz	subclavicle_r_px	subclavicle_r_py	subclavicle_r_pz	subclavicle_l_px	subclavicle_l_py	subclavicle_l_pz	neck_px	neck_py	neck_pz	sternalnotch_px	sternalnotch_py	sternalnotch_pz	xyphoidprocess_px	xyphoidprocess_py	xyphoidprocess_pz	midhip_tx	midhip_ty	midhip_tz	hip_r_tx	hip_r_ty	hip_r_tz	hip_l_tx	hip_l_ty	hip_l_tz	knee_r_tx	knee_r_ty	knee_r_tz	knee_l_tx	knee_l_ty	knee_l_tz	ankle_r_tx	ankle_r_ty	ankle_r_tz	ankle_l_tx	ankle_l_ty	ankle_l_tz	midasis_tx	midasis_ty	midasis_tz	asis_r_tx	asis_r_ty	asis_r_tz	asis_l_tx	asis_l_ty	asis_l_tz	psis_r_tx	psis_r_ty	psis_r_tz	psis_l_tx	psis_l_ty	psis_l_tz	epicondLat_r_tx	epicondLat_r_ty	epicondLat_r_tz	epicondLat_l_tx	epicondLat_l_ty	epicondLat_l_tz	epicondMed_r_tx	epicondMed_r_ty	epicondMed_r_tz	epicondMed_l_tx	epicondMed_l_ty	epicondMed_l_tz	malleolusLat_r_tx	malleolusLat_r_ty	malleolusLat_r_tz	malleolusLat_l_tx	malleolusLat_l_ty	malleolusLat_l_tz	malleolusMedv_r_tx	malleolusMedv_r_ty	malleolusMedv_r_tz	malleolusMedv_l_tx	malleolusMedv_l_ty	malleolusMedv_l_tz	neck_tx	neck_ty	neck_tz	subclavicle_r_tx	subclavicle_r_ty	subclavicle_r_tz	subclavicle_l_tx	subclavicle_l_ty	subclavicle_l_tz	sternalnotch_tx	sternalnotch_ty	sternalnotch_tz	xyphoidprocess_tx	xyphoidprocess_ty	xyphoidprocess_tz	thighwand_r_tx	thighwand_r_ty	thighwand_r_tz	thighwand_l_tx	thighwand_l_ty	thighwand_l_tz	upperleg1_r_tx	upperleg1_r_ty	upperleg1_r_tz	upperleg1_l_tx	upperleg1_l_ty	upperleg1_l_tz	upperleg2_r_tx	upperleg2_r_ty	upperleg2_r_tz	upperleg2_l_tx	upperleg2_l_ty	upperleg2_l_tz	shankwand_r_tx	shankwand_r_ty	shankwand_r_tz	shankwand_l_tx	shankwand_l_ty	shankwand_l_tz	lowerleg1_r_tx	lowerleg1_r_ty	lowerleg1_r_tz	lowerleg1_l_tx	lowerleg1_l_ty	lowerleg1_l_tz	toe_r_tx	toe_r_ty	toe_r_tz	toe_l_tx	toe_l_ty	toe_l_tz	ground_force_vx	ground_force_vy	ground_force_vz	ground_force_px	ground_force_py	ground_force_pz	ground_force_vx	ground_force_vy	ground_force_vz	ground_force_px	ground_force_py	ground_force_pz	ground_torque_x	ground_torque_y	ground_torque_z	ground_torque_x	ground_torque_y	ground_torque_z	ground_marker_px	ground_marker_py	ground_marker_pz	ground_marker_px	ground_marker_py	ground_marker_pz	ground_marker_px	ground_marker_py	ground_marker_pz	ground_marker_px	ground_marker_py	ground_marker_pz	ground_marker_px	ground_marker_py	ground_marker_pz	ground_marker_px	ground_marker_py	ground_marker_pz	ground_marker_px	ground_marker_py	ground_marker_pz	ground_marker_px	ground_marker_py	ground_marker_pz	ground_marker_px	ground_marker_py	ground_marker_pz	ground_marker_px	ground_marker_py	ground_marker_pz	ground_marker_px	ground_marker_py	ground_marker_pz	ground_marker_px	ground_marker_py	ground_marker_pz	ground_marker_px	ground_marker_py	ground_marker_pz	ground_marker_px	ground_marker_py	ground_marker_pz	ground_marker_px	ground_marker_py	ground_marker_pz	ground_marker_px	ground_marker_py	ground_marker_pz	ground_marker_px	ground_marker_py	ground_marker_pz	ground_marker_px	ground_marker_py	ground_marker_pz	ground_marker_px	ground_marker_py	ground_marker_pz	ground_marker_px	ground_marker_py	ground_marker_pz	ground_marker_px	ground_marker_py	ground_marker_pz	ground_marker_px	ground_marker_py	ground_marker_pz	ground_marker_px	ground_marker_py	ground_marker_pz	ground_marker_px	ground_marker_py	ground_marker_pz	ground_marker_px	ground_marker_py	ground_marker_pz	ground_marker_px	ground_marker_py	ground_marker_pz	ground_marker_px	ground_marker_py	ground_marker_pz	ground_marker_px	ground_marker_py	ground_marker_pz	ground_marker_px	ground_marker_py	ground_marker_pz	ground_marker_px	ground_marker_py	ground_marker_pz	ground_marker_px	ground_marker_py	ground_marker_pz	ground_marker_px	ground_marker_py	ground_marker_pz	ground_marker_px	ground_marker_py	ground_marker_pz	ground_marker_px	ground_marker_py	ground_marker_pz	ground_marker_px	ground_marker_py	ground_marker_pz	ground_marker_px	ground_marker_py	ground_marker_pz	ground_marker_px	ground_marker_py	ground_marker_pz
      0.76667000	      1.58390619	      0.95738601	     -0.24952628	     -0.15558719	     -1.25150114	      4.59385052	      1.16160098	      2.22336504	      2.09442589	    -15.01097713	     10.37436548	     18.88890667	     -2.99290108	     -3.60965158	    -56.51831671	      7.25558398	     -7.05868859	      2.45900063	      0.85181487	      0.00000000	      0.00000000	      0.00000000	      0.00000000	      1.64027590	      0.97887799	     -0.15479627	      1.61615232	      0.97812415	     -0.36637862	      1.59551699	      0.95733410	     -0.25045899	      1.43156774	      0.99029110	     -0.19424135	      1.41924341	      0.99073471	     -0.28154620	      1.53069074	      0.90416215	     -0.17438070	      1.51955397	      0.90116736	     -0.31284907	      1.52512235	      0.90266475	     -0.24361488	      1.59260491	      0.46827872	     -0.13892490	      1.55296194	      0.48947155	     -0.25080737	      1.63606442	      0.58631753	     -0.06662404	      1.63558931	      0.64722992	     -0.13815988	      1.63298053	      0.56598558	     -0.16165008	      1.42288533	      0.06920749	     -0.13381417	      1.41394860	      0.06993845	     -0.20176625	      1.47267932	      0.13175192	     -0.07310851	      1.46782574	      0.19303804	     -0.13353487	      1.53450002	      0.48984579	     -0.18177929	      1.43308444	      0.08559624	     -0.17659596	      1.54292488	      0.03836592	     -0.18605627	      1.67642884	      0.50190516	     -0.41443126	      1.67585479	      0.50195478	     -0.30621318	      1.77357020	      0.67950846	     -0.37154682	      1.67835711	      0.71116570	     -0.39410910	      1.69649024	      0.62637660	     -0.39783388	      1.37765690	      0.16208269	     -0.33690077	      1.40204867	      0.16126037	     -0.27145928	      1.53800569	      0.17620519	     -0.32329532	      1.51593467	      0.25779459	     -0.32896239	      1.65655748	      0.50249486	     -0.33762393	      1.40370363	      0.17325314	     -0.30028076	      1.48302479	      0.07278000	     -0.33183349	      1.58225761	      1.36800460	     -0.15540148	      1.57551292	      1.37502186	     -0.31074503	      1.48243355	      1.44810267	     -0.23600435	      1.56647296	      1.37348693	     -0.23641367	      1.59552110	      1.17133938	     -0.25347529	      1.52081800	      0.89763900	     -0.24039800	      1.52275900	      0.88887300	     -0.18285900	      1.51353300	      0.88740000	     -0.28901800	      1.53094400	      0.48028600	     -0.18851300	      1.65053700	      0.48532000	     -0.31889500	      1.42984700	      0.07387800	     -0.19167100	      1.39774900	      0.15547600	     -0.29769700	      1.60374200	      0.97854300	     -0.24463200	      1.61257600	      0.97995300	     -0.14298300	      1.59490800	      0.97713300	     -0.34628100	      1.41205800	      1.02103400	     -0.19787800	      1.40377800	      1.01877900	     -0.28255200	      1.53838900	      0.47961800	     -0.12948500	      1.64084200	      0.48637800	     -0.37759000	      1.51461200	      0.49338700	     -0.24844400	      1.66180000	      0.47820800	     -0.26591000	      1.42699600	      0.07429300	     -0.15378000	      1.38981900	      0.15907700	     -0.33622500	      1.43084300	      0.07761100	     -0.22330000	      1.41020900	      0.16484600	     -0.26980800	      1.48554700	      1.46850700	     -0.23510600	      1.58188200	      1.39360800	     -0.15547200	      1.58148800	      1.40087900	     -0.31109700	      1.56936000	      1.39882200	     -0.23714600	      1.60573600	      1.19775300	     -0.25338500	      1.56682500	      0.57818600	     -0.04633300	      1.75879400	      0.63926700	     -0.36022600	      1.58775700	      0.63968100	     -0.11484300	      1.66451000	      0.67385900	     -0.38144100	      1.58165100	      0.55864000	     -0.14190000	      1.68027700	      0.58812300	     -0.37456100	      1.45972600	      0.14281100	     -0.08549400	      1.54405100	      0.18637200	     -0.31302200	      1.45527200	      0.20297200	     -0.14497000	      1.52063600	      0.26544800	     -0.31609100	      1.54999700	      0.04142100	     -0.19429900	      1.48762000	      0.07709600	     -0.30399000	    -14.27845840	    462.14573153	    -19.89350559	      1.55631262	      0.00000000	     -0.19128781	      0.00000000	      0.00000000	      0.00000000	      0.85655646	      0.00000000	     -0.29670340	      0.00000000	      0.66389282	      0.00000000	      0.00000000	      0.00000000	      0.00000000	      1.52081811	      0.89763916	     -0.24039751	      1.52275920	      0.88887298	     -0.18285872	      1.51353276	      0.88740039	     -0.28901833	      1.53094375	      0.48028556	     -0.18851341	      1.65053737	      0.48531988	     -0.31889468	      1.42984653	      0.07387795	     -0.19167088	      1.39774907	      0.15547572	     -0.29769745	      1.60374188	      0.97854269	     -0.24463177	      1.61257613	      0.97995275	     -0.14298271	      1.59490752	      0.97713268	     -0.34628081	      1.41205835	      1.02103388	     -0.19787835	      1.40377772	      1.01877880	     -0.28255200	      1.53838873	      0.47961777	     -0.12948480	      1.64084220	      0.48637766	     -0.37758994	      1.51461244	      0.49338740	     -0.24844393	      1.66180003	      0.47820792	     -0.26590973	      1.42699611	      0.07429264	     -0.15378021	      1.38981938	      0.15907694	     -0.33622536	      1.43084264	      0.07761122	     -0.22330014	      1.41020942	      0.16484582	     -0.26980802	      1.48554659	      1.46850657	     -0.23510630	      1.58188188	      1.39360774	     -0.15547240	      1.58148837	      1.40087938	     -0.31109685	      1.56936026	      1.39882159	     -0.23714605	      1.60573554	      1.19775307	     -0.25338539	      1.56682491	      0.57818562	     -0.04633337	      1.75879395	      0.63926691	     -0.36022583	      1.58775675	      0.63968146	     -0.11484347	      1.66451049	      0.67385876	     -0.38144067	      1.58165073	      0.55863976	     -0.14190009	      1.68027663	      0.58812290	     -0.37456134	      1.45972586	      0.14281115	     -0.08549379	      1.54405129	      0.18637151	     -0.31302196	      1.45527220	      0.20297223	     -0.14496951	      1.52063596	      0.26544821	     -0.31609091	      1.54999745	      0.04142071	     -0.19429941	      1.48761976	      0.07709628	     -0.30398986
      0.77500000	      1.59665007	      0.95703304	     -0.24823175	     -0.25762414	     -1.03815402	      4.15514468	      0.16045893	      2.03838716	      2.18220139	    -14.45974788	     10.61609077	     20.12184961	     -2.62850822	     -3.54748217	    -55.22760482	      7.90971015	     -7.06787045	      2.04982433	      1.47651227	      0.00000000	      0.00000000	      0.00000000	      0.00000000	      1.65232600	      0.97808277	     -0.15299350	      1.62982512	      0.97814922	     -0.36475590	      1.60826759	      0.95696551	     -0.24907562	      1.44394528	      0.98998403	     -0.19399477	      1.43229181	      0.99077000	     -0.28138930	      1.54277388	      0.90361974	     -0.17369387	      1.53269489	      0.90115416	     -0.31225368	      1.53773438	      0.90238695	     -0.24297377	      1.59626244	      0.46668408	     -0.13748549	      1.55775154	      0.48851361	     -0.24964061	      1.64146002	      0.58395333	     -0.06499822	      1.64259299	      0.64479766	     -0.13658457	      1.63861197	      0.56359487	     -0.16002594	      1.42292530	      0.06975355	     -0.13360916	      1.41444901	      0.07058035	     -0.20161911	      1.47288759	      0.13182436	     -0.07255665	      1.46900197	      0.19316461	     -0.13299808	      1.53872855	      0.48935488	     -0.18071972	      1.43356005	      0.08605611	     -0.17631775	      1.54322694	      0.03827206	     -0.18497675	      1.69867110	      0.50513360	     -0.41204640	      1.69697457	      0.50519197	     -0.30384010	      1.79174455	      0.68467691	     -0.36822878	      1.69614859	      0.71439407	     -0.39178871	      1.71603347	      0.62998911	     -0.39529168	      1.41362379	      0.15365769	     -0.33862057	      1.43734465	      0.15365494	     -0.27292777	      1.57307615	      0.17453723	     -0.32328176	      1.54761502	      0.25513324	     -0.32894636	      1.67778496	      0.50561665	     -0.33541676	      1.43878849	      0.16580310	     -0.30169547	      1.52364533	      0.06992133	     -0.33313232	      1.59582796	      1.36784814	     -0.15550162	      1.58846152	      1.37456721	     -0.31083012	      1.49577018	      1.44790296	     -0.23585728	      1.57972128	      1.37318918	     -0.23645985	      1.60846723	      1.17097488	     -0.25323989	      1.53314100	      0.89751900	     -0.24062900	      1.53453200	      0.88852500	     -0.18315500	      1.52621300	      0.88744700	     -0.28939400	      1.53505800	      0.47994700	     -0.18818600	      1.67163100	      0.48804000	     -0.31823100	      1.43024700	      0.07445700	     -0.19173700	      1.43355400	      0.14759200	     -0.29661300	      1.61619600	      0.97827200	     -0.24391100	      1.62416600	      0.97930500	     -0.14212800	      1.60822600	      0.97723900	     -0.34569400	      1.42425900	      1.02104200	     -0.19885400	      1.41659700	      1.01887300	     -0.28346000	      1.54205800	      0.47922900	     -0.12910400	      1.66260600	      0.48900000	     -0.37703500	      1.51919500	      0.49292100	     -0.24763600	      1.68297900	      0.48108400	     -0.26589100	      1.42731100	      0.07488400	     -0.15385400	      1.42529900	      0.15092200	     -0.33509700	      1.43162300	      0.07814900	     -0.22327300	      1.44494500	      0.15770400	     -0.26870000	      1.49888000	      1.46844300	     -0.23506200	      1.59521100	      1.39345300	     -0.15548500	      1.59478800	      1.40068700	     -0.31108600	      1.58267500	      1.39865800	     -0.23714500	      1.61887600	      1.19755500	     -0.25334500	      1.57178200	      0.57774500	     -0.04571200	      1.77697600	      0.64467300	     -0.35799900	      1.59365200	      0.63880700	     -0.11432200	      1.68190200	      0.67712200	     -0.38081000	      1.58667200	      0.55775700	     -0.14111000	      1.70007500	      0.59184500	     -0.37389700	      1.46050300	      0.14307900	     -0.08548200	      1.57781100	      0.18502200	     -0.31247200	      1.45655600	      0.20331200	     -0.14490200	      1.55122600	      0.26315400	     -0.31553200	      1.55011100	      0.04144100	     -0.19424800	      1.52724300	      0.07451600	     -0.30287200	    -11.50857842	    467.54282717	    -19.38272250	      1.55913745	      0.00000000	     -0.19183717	      0.00000000	      0.00000000	      0.00000000	      0.85752014	      0.00000000	     -0.29664429	      0.00000000	      0.81516968	      0.00000000	      0.00000000	      0.00000000	      0.00000000	      1.53314102	      0.89751863	     -0.24062908	      1.53453195	      0.88852537	     -0.18315458	      1.52621305	      0.88744700	     -0.28939390	      1.53505790	      0.47994727	     -0.18818630	      1.67163134	      0.48804024	     -0.31823146	      1.43024743	      0.07445683	     -0.19173749	      1.43355441	      0.14759220	     -0.29661313	      1.61619592	      0.97827196	     -0.24391094	      1.62416577	      0.97930509	     -0.14212798	      1.60822594	      0.97723877	     -0.34569389	      1.42425907	      1.02104163	     -0.19885390	      1.41659677	      1.01887286	     -0.28345978	      1.54205823	      0.47922868	     -0.12910393	      1.66260636	      0.48900008	     -0.37703523	      1.51919508	      0.49292079	     -0.24763562	      1.68297887	      0.48108450	     -0.26589075	      1.42731106	      0.07488404	     -0.15385352	      1.42529857	      0.15092185	     -0.33509696	      1.43162310	      0.07814945	     -0.22327270	      1.44494462	      0.15770440	     -0.26870048	      1.49888027	      1.46844316	     -0.23506184	      1.59521079	      1.39345312	     -0.15548544	      1.59478831	      1.40068722	     -0.31108561	      1.58267522	      1.39865768	     -0.23714454	      1.61887586	      1.19755459	     -0.25334480	      1.57178211	      0.57774460	     -0.04571219	      1.77697575	      0.64467257	     -0.35799947	      1.59365237	      0.63880706	     -0.11432195	      1.68190205	      0.67712194	     -0.38080981	      1.58667171	      0.55775750	     -0.14111000	      1.70007527	      0.59184498	     -0.37389684	      1.46050298	      0.14307925	     -0.08548202	      1.57781100	      0.18502235	     -0.31247181	      1.45655620	      0.20331211	     -0.14490201	      1.55122650	      0.26315430	     -0.31553182	      1.55011070	      0.04144149	     -0.19424796	      1.52724290	      0.07451563	     -0.30287203
      0.78333000	      1.60940607	      0.95653857	     -0.24700726	     -0.33831761	     -0.84813838	      3.69493776	     -0.86785000	      1.84994882	      2.35104586	    -13.89080222	     10.85025045	     21.26236578	     -2.28104888	     -3.34282689	    -53.74217834	      8.47627457	     -7.09545307	      1.68197013	      2.03044806	      0.00000000	      0.00000000	      0.00000000	      0.00000000	      1.66434006	      0.97720502	     -0.15125560	      1.64354473	      0.97799281	     -0.36319083	      1.62102991	      0.95645883	     -0.24775784	      1.45631135	      0.98950892	     -0.19389292	      1.44536280	      0.99059564	     -0.28137533	      1.55486417	      0.90295137	     -0.17308086	      1.54589783	      0.90095181	     -0.31172462	      1.55038100	      0.90195159	     -0.24240274	      1.59988837	      0.46512831	     -0.13608579	      1.56239621	      0.48754196	     -0.24847064	      1.64690745	      0.58161267	     -0.06349168	      1.64957261	      0.64233542	     -0.13514059	      1.64418224	      0.56119322	     -0.15850992	      1.42305149	      0.07035752	     -0.13312670	      1.41495928	      0.07125042	     -0.20118259	      1.47323403	      0.13198386	     -0.07180517	      1.47023704	      0.19334743	     -0.13227351	      1.54289932	      0.48888845	     -0.17963936	      1.43406911	      0.08655680	     -0.17577750	      1.54354700	      0.03822221	     -0.18374501	      1.72059842	      0.50815667	     -0.40934969	      1.71747507	      0.50814827	     -0.30117516	      1.80969087	      0.68940543	     -0.36429555	      1.71387140	      0.71732609	     -0.38911157	      1.73538566	      0.63331138	     -0.39235831	      1.45026954	      0.14519558	     -0.34093277	      1.47309945	      0.14597755	     -0.27492970	      1.60841881	      0.17307915	     -0.32339419	      1.57947310	      0.25248631	     -0.32911469	      1.69844111	      0.50853277	     -0.33296687	      1.47438014	      0.15829588	     -0.30363268	      1.56465548	      0.06734646	     -0.33463005	      1.60927170	      1.36750248	     -0.15555257	      1.60154682	      1.37394361	     -0.31087543	      1.50912505	      1.44753468	     -0.23582001	      1.59298055	      1.37271412	     -0.23648231	      1.62143268	      1.17043305	     -0.25295561	      1.54544200	      0.89719500	     -0.24082400	      1.54634900	      0.88805100	     -0.18360800	      1.53895800	      0.88731900	     -0.28991900	      1.53914700	      0.47961600	     -0.18785000	      1.69220200	      0.49047700	     -0.31754300	      1.43066600	      0.07511500	     -0.19180100	      1.46992400	      0.13968800	     -0.29573000	      1.62866700	      0.97787100	     -0.24336400	      1.63575500	      0.97857300	     -0.14141700	      1.62158000	      0.97717000	     -0.34531000	      1.43647400	      1.02089000	     -0.19981400	      1.42942100	      1.01876700	     -0.28441600	      1.54578400	      0.47888400	     -0.12872600	      1.68400200	      0.49141200	     -0.37646800	      1.52370200	      0.49289100	     -0.24704100	      1.70245400	      0.48415900	     -0.26528300	      1.42763900	      0.07555700	     -0.15392400	      1.46137500	      0.14271500	     -0.33417500	      1.43192100	      0.07877200	     -0.22333000	      1.48001900	      0.15043900	     -0.26772100	      1.51225100	      1.46821500	     -0.23510400	      1.60854100	      1.39314600	     -0.15552300	      1.60810400	      1.40024900	     -0.31106800	      1.59599900	      1.39829600	     -0.23715400	      1.63195200	      1.19713600	     -0.25319300	      1.57694300	      0.57734100	     -0.04512500	      1.79472200	      0.64983200	     -0.35535400	      1.59969000	      0.63805600	     -0.11368000	      1.69929500	      0.68037400	     -0.38011700	      1.59174800	      0.55690500	     -0.14046500	      1.71929400	      0.59523400	     -0.37285300	      1.46127300	      0.14341800	     -0.08547600	      1.61188800	      0.18379400	     -0.31201600	      1.45793300	      0.20368600	     -0.14490000	      1.58203200	      0.26076400	     -0.31510000	      1.55032200	      0.04151000	     -0.19418200	      1.56722200	      0.07206600	     -0.30213900	     -8.23669356	    474.10248784	    -19.16032509	      1.56118384	      0.00000000	     -0.19230280	      0.00000000	      0.00000000	      0.00000000	      0.85856927	      0.00000000	     -0.29658282	      0.00000000	      0.96002271	      0.00000000	      0.00000000	      0.00000000	      0.00000000	      1.54544199	      0.89719474	     -0.24082392	      1.54634905	      0.88805073	     -0.18360800	      1.53895831	      0.88731909	     -0.28991884	      1.53914750	      0.47961563	     -0.18785033	      1.69220245	      0.49047697	     -0.31754318	      1.43066645	      0.07511548	     -0.19180097	      1.46992409	      0.13968833	     -0.29573047	      1.62866735	      0.97787112	     -0.24336381	      1.63575470	      0.97857267	     -0.14141741	      1.62158000	      0.97716957	     -0.34531021	      1.43647408	      1.02089024	     -0.19981433	      1.42942095	      1.01876688	     -0.28441629	      1.54578412	      0.47888449	     -0.12872614	      1.68400156	      0.49141192	     -0.37646788	      1.52370167	      0.49289060	     -0.24704123	      1.70245409	      0.48415899	     -0.26528347	      1.42763913	      0.07555743	     -0.15392433	      1.46137488	      0.14271498	     -0.33417523	      1.43192148	      0.07877193	     -0.22332992	      1.48001909	      0.15043935	     -0.26772124	      1.51225102	      1.46821463	     -0.23510371	      1.60854113	      1.39314556	     -0.15552309	      1.60810399	      1.40024853	     -0.31106833	      1.59599948	      1.39829636	     -0.23715419	      1.63195193	      1.19713569	     -0.25319335	      1.57694292	      0.57734150	     -0.04512522	      1.79472208	      0.64983195	     -0.35535377	      1.59968960	      0.63805628	     -0.11368006	      1.69929504	      0.68037373	     -0.38011670	      1.59174800	      0.55690509	     -0.14046472	      1.71929371	      0.59523416	     -0.37285307	      1.46127307	      0.14341806	     -0.08547581	      1.61188841	      0.18379354	     -0.31201649	      1.45793283	      0.20368631	     -0.14490037	      1.58203244	      0.26076356	     -0.31510049	      1.55032218	      0.04150973	     -0.19418211	      1.56722224	      0.07206593	     -0.30213875
